<svg width="100" height="100" viewBox="0 0 100 100" fill="none" xmlns="http://www.w3.org/2000/svg">
<rect width="100" height="100" rx="20" fill="#0065FC"/>
<path d="M33.4165 35.4974C32.6285 35.2688 31.8123 34.9256 30.9681 34.4682C30.1802 33.9537 29.4485 33.3819 28.7729 32.753C28.1538 32.0668 27.6754 31.3237 27.3378 30.5231C26.9999 29.7227 26.9156 28.8652 27.0844 27.9504C27.4221 26.0634 28.4915 24.2912 30.2926 22.633C32.0937 20.9749 34.514 19.6598 37.5535 18.6879V18.4305C37.6097 17.8016 38.0038 17.1727 38.7353 16.5438C39.5235 15.8576 40.4802 15.4002 41.6061 15.1716C42.6755 14.9428 43.4353 14.9428 43.8856 15.1716C44.392 15.4002 44.6454 15.7146 44.6454 16.115C44.6454 16.2294 44.6173 16.3723 44.5609 16.5438C44.5609 16.658 44.5609 16.7724 44.5609 16.8868V17.3157C47.319 17.0869 50.3864 17.1727 53.7637 17.5728C57.8162 18.0875 61.1089 19.0594 63.6415 20.489C66.1744 21.9183 68.0881 23.5764 69.3828 25.4631C70.6772 27.2927 71.4654 29.2082 71.7466 31.2093C72.0845 33.2104 72.0845 35.04 71.7466 36.6981C71.4089 38.6422 70.7898 40.4145 69.8893 42.0155C68.9887 43.5592 67.9193 44.9599 66.6811 46.2177C65.4426 47.4185 64.0637 48.4762 62.544 49.391C61.0244 50.3058 59.4202 51.0777 57.7317 51.7066C59.5328 52.1069 61.0525 52.7644 62.2907 53.6792C63.5853 54.5369 64.6266 55.5661 65.4146 56.7666C66.2027 57.9673 66.7654 59.311 67.1033 60.7976C67.4409 62.2842 67.5533 63.7994 67.4409 65.3431C67.3283 67.7443 66.7092 70.0027 65.5834 72.1183C64.514 74.1767 63.0505 75.9775 61.1932 77.5215C59.3359 79.0652 57.1126 80.2659 54.5235 81.1234C51.9906 81.9811 49.1763 82.3526 46.0805 82.2385H45.0676C44.2232 82.9815 43.2946 83.5248 42.2814 83.8678C41.3246 84.2681 40.396 84.554 39.4954 84.7255C38.4822 84.9541 37.469 85.04 36.4558 84.9829C36.4558 84.5826 36.4558 84.1537 36.4558 83.6963C36.5122 83.296 36.5403 82.8959 36.5403 82.4956C36.5403 82.0382 36.5684 81.5808 36.6246 81.1234C35.9493 81.0092 35.3021 80.8375 34.683 80.6089C34.1201 80.4374 33.5291 80.2371 32.91 80.0085C32.3471 79.837 31.8406 79.6368 31.3903 79.4082C31.1651 79.0652 30.9962 78.6363 30.8836 78.1218C30.771 77.6644 30.6867 77.1497 30.6302 76.5779C30.6302 76.0634 30.7429 75.463 30.9681 74.7771C32.7128 75.463 34.7111 75.9775 36.9625 76.3208C37.0749 73.4048 37.1594 69.9457 37.2156 65.9434C37.3283 61.941 37.3847 57.7387 37.3847 53.3362C37.3847 48.3618 37.3847 43.4733 37.3847 38.6707C37.4409 33.8678 37.469 29.7512 37.469 26.3208C35.8367 27.1783 34.5704 28.3505 33.6698 29.8371C32.7693 31.3237 32.6847 33.2104 33.4165 35.4974ZM59.4202 65.7719C59.6454 63.2561 59.2794 61.255 58.3227 59.7684C57.3659 58.2247 56.0994 57.0813 54.5235 56.338C53.0038 55.5373 51.3151 55.0514 49.4578 54.8799C47.6567 54.7084 46.0244 54.6798 44.5609 54.7943C44.6735 59.5398 44.758 63.8564 44.8142 67.7443C44.8704 71.5752 44.9269 74.7197 44.9831 77.1782C46.728 77.2356 48.4165 77.0353 50.0488 76.5779C51.6811 76.1205 53.1443 75.406 54.439 74.4338C55.7898 73.4619 56.9156 72.2612 57.8162 70.8319C58.7168 69.3453 59.2513 67.6586 59.4202 65.7719ZM44.3921 24.3482C44.2794 27.2642 44.2232 30.7233 44.2232 34.7256C44.2232 38.7278 44.2794 43.1874 44.3921 48.1047C44.3921 48.5621 44.3921 49.0195 44.3921 49.4769C44.3921 49.877 44.4201 50.3058 44.4766 50.7632C46.5027 50.5917 48.6134 50.1058 50.8086 49.3054C53.0038 48.4477 55.0019 47.3328 56.803 45.9606C58.6603 44.5884 60.18 42.9874 61.362 41.1578C62.544 39.2711 63.135 37.2126 63.135 34.9829C63.135 33.2675 62.6848 31.7523 61.7842 30.4374C60.8836 29.0652 59.6735 27.9216 58.1539 27.0068C56.6904 26.092 54.9738 25.406 53.0038 24.9486C51.0901 24.4912 49.092 24.2624 47.0094 24.2624C46.5592 24.2624 46.1089 24.2624 45.6586 24.2624C45.2645 24.2624 44.8423 24.2911 44.3921 24.3482Z" fill="white"/>
</svg>
