<svg width="61" height="29" viewBox="0 0 61 29" fill="none" xmlns="http://www.w3.org/2000/svg">
<path d="M2.69139 8.68751C2.36329 8.59381 2.02339 8.45311 1.67189 8.26561C1.34379 8.05471 1.03909 7.82031 0.757785 7.56251C0.499985 7.28121 0.30079 6.97661 0.16019 6.64841C0.01949 6.32031 -0.0156093 5.96881 0.0546907 5.59381C0.195291 4.82031 0.64059 4.09381 1.39059 3.41411C2.14059 2.73441 3.14839 2.19531 4.41409 1.79691V1.69141C4.43749 1.43361 4.60158 1.17581 4.90618 0.918006C5.23438 0.636706 5.63279 0.449206 6.10159 0.355506C6.54689 0.261706 6.86328 0.261706 7.05078 0.355506C7.26168 0.449206 7.36719 0.578106 7.36719 0.742206C7.36719 0.789106 7.35549 0.847706 7.33199 0.918006C7.33199 0.964806 7.33199 1.01171 7.33199 1.05861V1.23441C8.48049 1.14061 9.75779 1.17581 11.1641 1.33981C12.8516 1.55081 14.2227 1.94921 15.2773 2.53521C16.332 3.12111 17.1289 3.80081 17.668 4.57421C18.207 5.32421 18.5352 6.10941 18.6523 6.92971C18.793 7.75001 18.793 8.50001 18.6523 9.17971C18.5117 9.97661 18.2539 10.7031 17.8789 11.3594C17.5039 11.9922 17.0586 12.5664 16.543 13.082C16.0273 13.5742 15.4531 14.0078 14.8203 14.3828C14.1875 14.7578 13.5195 15.0742 12.8164 15.332C13.5664 15.4961 14.1992 15.7656 14.7148 16.1406C15.2539 16.4922 15.6875 16.9141 16.0156 17.4062C16.3438 17.8984 16.5781 18.4492 16.7188 19.0586C16.8594 19.668 16.9062 20.2891 16.8594 20.9219C16.8125 21.9062 16.5547 22.832 16.0859 23.6992C15.6406 24.543 15.0312 25.2812 14.2578 25.9141C13.4844 26.5469 12.5586 27.0391 11.4805 27.3906C10.4258 27.7422 9.25389 27.8945 7.96479 27.8477H7.54299C7.19139 28.1523 6.80469 28.375 6.38279 28.5156C5.98439 28.6797 5.59769 28.7969 5.22269 28.8672C4.80079 28.9609 4.37889 28.9961 3.95699 28.9727C3.95699 28.8086 3.95699 28.6328 3.95699 28.4453C3.98049 28.2812 3.99219 28.1172 3.99219 27.9531C3.99219 27.7656 4.00389 27.5781 4.02729 27.3906C3.74609 27.3438 3.47659 27.2734 3.21879 27.1797C2.98439 27.1094 2.73829 27.0273 2.48049 26.9336C2.24609 26.8633 2.03519 26.7812 1.84769 26.6875C1.75389 26.5469 1.68359 26.3711 1.63669 26.1602C1.58979 25.9727 1.55468 25.7617 1.53118 25.5273C1.53118 25.3164 1.57809 25.0703 1.67189 24.7891C2.39839 25.0703 3.23049 25.2812 4.16799 25.4219C4.21479 24.2266 4.24999 22.8086 4.27339 21.168C4.32029 19.5273 4.34379 17.8047 4.34379 16C4.34379 13.9609 4.34379 11.957 4.34379 9.98831C4.36719 8.01951 4.37889 6.33201 4.37889 4.92581C3.69919 5.27731 3.17189 5.75781 2.79689 6.36721C2.42189 6.97661 2.38669 7.75001 2.69139 8.68751ZM13.5195 21.0977C13.6133 20.0664 13.4609 19.2461 13.0625 18.6367C12.6641 18.0039 12.1367 17.5352 11.4805 17.2305C10.8477 16.9023 10.1445 16.7031 9.37109 16.6328C8.62109 16.5625 7.94139 16.5508 7.33199 16.5977C7.37889 18.543 7.41409 20.3125 7.43749 21.9062C7.46089 23.4766 7.48439 24.7656 7.50779 25.7734C8.23439 25.7969 8.93749 25.7148 9.61719 25.5273C10.2969 25.3398 10.9062 25.0469 11.4453 24.6484C12.0078 24.25 12.4766 23.7578 12.8516 23.1719C13.2266 22.5625 13.4492 21.8711 13.5195 21.0977ZM7.26169 4.11721C7.21479 5.31251 7.19139 6.73051 7.19139 8.37111C7.19139 10.0117 7.21479 11.8398 7.26169 13.8555C7.26169 14.043 7.26169 14.2305 7.26169 14.418C7.26169 14.582 7.27339 14.7578 7.29689 14.9453C8.14059 14.875 9.01949 14.6758 9.93359 14.3477C10.8477 13.9961 11.6797 13.5391 12.4297 12.9766C13.2031 12.4141 13.8359 11.7578 14.3281 11.0078C14.8203 10.2344 15.0664 9.39061 15.0664 8.47661C15.0664 7.77341 14.8789 7.15231 14.5039 6.61331C14.1289 6.05081 13.625 5.58201 12.9922 5.20701C12.3828 4.83201 11.668 4.55081 10.8477 4.36331C10.0508 4.17581 9.21879 4.08201 8.35159 4.08201C8.16409 4.08201 7.97659 4.08201 7.78909 4.08201C7.62499 4.08201 7.44919 4.09381 7.26169 4.11721ZM29.2344 18.9531C29.1875 19.8672 29.0234 20.7109 28.7422 21.4844C28.4844 22.2578 28.1211 22.9375 27.6523 23.5234C27.1836 24.0859 26.6211 24.5312 25.9648 24.8594C25.332 25.1875 24.6289 25.3633 23.8555 25.3867C23.1758 25.4102 22.5312 25.2461 21.9219 24.8945C21.3359 24.543 20.8203 24.0508 20.375 23.418C19.9297 22.7852 19.5898 22.0352 19.3555 21.168C19.1445 20.2773 19.0859 19.3164 19.1797 18.2852C19.25 17.0898 19.4727 16.0703 19.8477 15.2266C20.2227 14.3594 20.6211 13.6445 21.043 13.082C21.4648 12.5195 21.8516 12.1094 22.2031 11.8516C22.5781 11.5703 22.8125 11.4062 22.9062 11.3594C23.0703 11.2891 23.2227 11.2773 23.3633 11.3242C23.5039 11.3477 23.6562 11.3828 23.8203 11.4297C23.8672 11.4531 23.9141 11.5117 23.9609 11.6055C24.0547 11.7695 24.1133 12.0742 24.1367 12.5195C24.2539 12.2617 24.4062 12.0508 24.5938 11.8867C24.7812 11.7227 24.9688 11.6055 25.1562 11.5352C25.3906 11.4414 25.625 11.3828 25.8594 11.3594C26.0234 11.3359 26.3047 11.4648 26.7031 11.7461C27.125 12.0273 27.5234 12.4727 27.8984 13.082C28.2969 13.6914 28.6367 14.4883 28.918 15.4727C29.1992 16.4336 29.3047 17.5938 29.2344 18.9531ZM26.8438 18.5312C26.8672 17.9688 26.8438 17.4062 26.7734 16.8438C26.7266 16.2578 26.6328 15.7305 26.4922 15.2617C26.375 14.7695 26.2227 14.3828 26.0352 14.1016C25.8477 13.7969 25.6602 13.6445 25.4727 13.6445C25.2617 13.6914 25.0273 13.7969 24.7695 13.9609C24.5586 14.1016 24.3242 14.3242 24.0664 14.6289C23.8086 14.9336 23.5625 15.3672 23.3281 15.9297C23.3047 15.8594 23.2812 15.7305 23.2578 15.543C23.2344 15.3789 23.2109 15.168 23.1875 14.9102C23.1875 14.6289 23.2109 14.2539 23.2578 13.7852C22.9297 14.1836 22.6719 14.6523 22.4844 15.1914C22.3203 15.7305 22.1914 16.2461 22.0977 16.7383C22.0039 17.3242 21.9336 17.9102 21.8867 18.4961C21.8633 19.1289 21.8867 19.75 21.957 20.3594C22.0508 20.9688 22.1914 21.5078 22.3789 21.9766C22.5898 22.4453 22.8359 22.8203 23.1172 23.1016C23.3984 23.3828 23.7383 23.5117 24.1367 23.4883C24.5352 23.4648 24.8867 23.3008 25.1914 22.9961C25.4961 22.6914 25.7656 22.3047 26 21.8359C26.2344 21.3672 26.4219 20.8398 26.5625 20.2539C26.7031 19.668 26.7969 19.0938 26.8438 18.5312ZM40.836 18.9531C40.789 19.8672 40.625 20.7109 40.344 21.4844C40.086 22.2578 39.723 22.9375 39.254 23.5234C38.785 24.0859 38.223 24.5312 37.566 24.8594C36.934 25.1875 36.23 25.3633 35.457 25.3867C34.777 25.4102 34.133 25.2461 33.523 24.8945C32.938 24.543 32.422 24.0508 31.977 23.418C31.531 22.7852 31.191 22.0352 30.957 21.168C30.746 20.2773 30.688 19.3164 30.781 18.2852C30.852 17.0898 31.074 16.0703 31.449 15.2266C31.824 14.3594 32.223 13.6445 32.645 13.082C33.066 12.5195 33.453 12.1094 33.805 11.8516C34.18 11.5703 34.414 11.4062 34.508 11.3594C34.672 11.2891 34.824 11.2773 34.965 11.3242C35.105 11.3477 35.258 11.3828 35.422 11.4297C35.469 11.4531 35.516 11.5117 35.562 11.6055C35.656 11.7695 35.715 12.0742 35.738 12.5195C35.855 12.2617 36.008 12.0508 36.195 11.8867C36.383 11.7227 36.57 11.6055 36.758 11.5352C36.992 11.4414 37.227 11.3828 37.461 11.3594C37.625 11.3359 37.906 11.4648 38.305 11.7461C38.727 12.0273 39.125 12.4727 39.5 13.082C39.898 13.6914 40.238 14.4883 40.52 15.4727C40.801 16.4336 40.906 17.5938 40.836 18.9531ZM38.445 18.5312C38.469 17.9688 38.445 17.4062 38.375 16.8438C38.328 16.2578 38.234 15.7305 38.094 15.2617C37.977 14.7695 37.824 14.3828 37.637 14.1016C37.449 13.7969 37.262 13.6445 37.074 13.6445C36.863 13.6914 36.629 13.7969 36.371 13.9609C36.16 14.1016 35.926 14.3242 35.668 14.6289C35.41 14.9336 35.164 15.3672 34.93 15.9297C34.906 15.8594 34.883 15.7305 34.859 15.543C34.836 15.3789 34.812 15.168 34.789 14.9102C34.789 14.6289 34.812 14.2539 34.859 13.7852C34.531 14.1836 34.273 14.6523 34.086 15.1914C33.922 15.7305 33.793 16.2461 33.699 16.7383C33.605 17.3242 33.535 17.9102 33.488 18.4961C33.465 19.1289 33.488 19.75 33.559 20.3594C33.652 20.9688 33.793 21.5078 33.98 21.9766C34.191 22.4453 34.438 22.8203 34.719 23.1016C35 23.3828 35.34 23.5117 35.738 23.4883C36.137 23.4648 36.488 23.3008 36.793 22.9961C37.098 22.6914 37.367 22.3047 37.602 21.8359C37.836 21.3672 38.023 20.8398 38.164 20.2539C38.305 19.668 38.398 19.0938 38.445 18.5312ZM49.836 16.5977C50.328 16.8086 50.797 17.1484 51.242 17.6172C51.688 18.0625 51.969 18.7422 52.086 19.6562C52.18 20.4531 52.309 21.168 52.473 21.8008C52.637 22.4336 52.871 23.0078 53.176 23.5234C53.48 24.0156 53.879 24.4609 54.371 24.8594C54.887 25.2344 55.543 25.5625 56.34 25.8438C56.129 26.0312 55.871 26.1836 55.566 26.3008C55.285 26.418 55.016 26.5 54.758 26.5469C54.453 26.6406 54.137 26.6875 53.809 26.6875C53.035 26.7578 52.402 26.6523 51.91 26.3711C51.418 26.1133 51.031 25.7266 50.75 25.2109C50.469 24.6953 50.258 24.0977 50.117 23.418C49.977 22.7383 49.871 22.0352 49.801 21.3086C49.777 21.0039 49.742 20.6875 49.695 20.3594C49.648 20.0312 49.566 19.7148 49.449 19.4102C49.332 19.1055 49.168 18.8242 48.957 18.5664C48.77 18.3086 48.523 18.1094 48.219 17.9688C47.703 18.3672 47.223 18.7188 46.777 19.0234C46.355 19.3047 45.98 19.5391 45.652 19.7266C45.676 20.9922 45.734 22.0352 45.828 22.8555C45.945 23.6758 46.098 24.2266 46.285 24.5078C46.121 24.625 45.957 24.7305 45.793 24.8242C45.629 24.8945 45.488 24.9531 45.371 25C45.207 25.0703 45.055 25.1172 44.914 25.1406C44.445 25.2812 44.023 25.2578 43.648 25.0703C43.297 24.9062 43.109 24.4492 43.086 23.6992L42.875 3.16801C42.875 2.98051 43.051 2.79301 43.402 2.60551C43.777 2.39451 44.188 2.23051 44.633 2.11331C45.078 1.99611 45.477 1.93751 45.828 1.93751C46.203 1.93751 46.379 2.04301 46.355 2.25391C46.285 3.87111 46.215 5.39451 46.145 6.82421C46.074 8.25391 46.016 9.51951 45.969 10.6211C45.898 11.9102 45.84 13.082 45.793 14.1367C45.746 14.7695 45.711 15.3789 45.688 15.9648C45.688 16.5508 45.676 17.1133 45.652 17.6523C46.098 17.3008 46.566 16.9141 47.059 16.4922C47.551 16.0703 48.02 15.6016 48.465 15.0859C48.91 14.5703 49.285 14.0195 49.59 13.4336C49.895 12.8242 50.07 12.1797 50.117 11.5C50.375 11.3125 50.633 11.1602 50.891 11.043C51.172 10.9023 51.418 10.7969 51.629 10.7266C51.887 10.6328 52.121 10.5859 52.332 10.5859C52.871 10.5625 53.188 10.6797 53.281 10.9375C53.352 11.125 53.34 11.4062 53.246 11.7812C53.176 12.1328 53 12.5664 52.719 13.082C52.461 13.5742 52.098 14.125 51.629 14.7344C51.16 15.3203 50.562 15.9414 49.836 16.5977ZM55.672 12.5547C55.672 12.4141 55.859 12.2617 56.234 12.0977C56.609 11.9336 57.02 11.8047 57.465 11.7109C57.934 11.5938 58.355 11.5352 58.73 11.5352C59.129 11.5117 59.328 11.5938 59.328 11.7812C59.328 12.1328 59.305 12.6367 59.258 13.293C59.211 13.9258 59.152 14.6055 59.082 15.332C59.012 16.0352 58.941 16.75 58.871 17.4766C58.801 18.1797 58.754 18.7773 58.73 19.2695C58.684 19.7852 58.637 20.3477 58.59 20.957C58.543 21.4727 58.508 22.0469 58.484 22.6797C58.461 23.3125 58.461 23.957 58.484 24.6133C58.484 24.7305 58.367 24.8477 58.133 24.9648C57.898 25.082 57.641 25.1641 57.359 25.2109C57.078 25.2812 56.809 25.3164 56.551 25.3164C56.293 25.3164 56.152 25.2695 56.129 25.1758C56.082 25.082 56.035 24.918 55.988 24.6836C55.941 24.4492 55.895 24.1211 55.848 23.6992C55.801 23.2539 55.766 22.6914 55.742 22.0117C55.719 21.3086 55.73 20.4648 55.777 19.4805C55.871 17.5352 55.883 16.0352 55.812 14.9805C55.742 13.9023 55.695 13.0938 55.672 12.5547ZM58.133 5.55861C58.602 5.55861 59.047 5.69921 59.469 5.98051C59.891 6.26171 60.102 6.63671 60.102 7.10551C60.102 7.45701 60.008 7.79691 59.82 8.12501C59.656 8.45311 59.445 8.74611 59.188 9.00391C58.93 9.26171 58.637 9.47271 58.309 9.63671C57.98 9.77731 57.676 9.8477 57.395 9.8477C57.02 9.8477 56.715 9.78911 56.48 9.67191C56.246 9.53121 56.059 9.37891 55.918 9.21481C55.801 9.02731 55.719 8.82811 55.672 8.61721C55.625 8.40621 55.602 8.20701 55.602 8.01951C55.602 7.78521 55.637 7.52731 55.707 7.24611C55.777 6.94141 55.906 6.67191 56.094 6.43751C56.281 6.17971 56.539 5.96881 56.867 5.80471C57.195 5.64061 57.617 5.55861 58.133 5.55861ZM57.254 8.8281C57.395 8.8281 57.547 8.78121 57.711 8.68751C57.898 8.57031 58.062 8.44141 58.203 8.30081C58.367 8.16021 58.496 8.00781 58.59 7.84381C58.707 7.67971 58.766 7.53911 58.766 7.42191C58.766 7.23441 58.672 7.14061 58.484 7.14061C58.367 7.14061 58.215 7.18751 58.027 7.28121C57.863 7.37501 57.699 7.49221 57.535 7.63281C57.371 7.75001 57.23 7.89061 57.113 8.05471C57.02 8.19531 56.973 8.33591 56.973 8.47661C56.973 8.71091 57.066 8.8281 57.254 8.8281Z" fill="#0065FC"/>
</svg>
